<svg width="93" height="34" viewBox="0 0 93 34" fill="none" xmlns="http://www.w3.org/2000/svg">
<path d="M86.7924 21.8824V25.8499H93.0001V21.113C93.0001 19.5741 92.8373 18.1554 92.5351 16.9051C92.2561 15.6547 91.7678 14.5487 91.0471 13.635C90.3496 12.7212 89.4196 12.0239 88.2106 11.519C87.0482 11.014 85.5834 10.7496 83.7932 10.7496C83.1887 10.7496 82.5377 10.8217 81.8868 10.966C81.259 11.0862 80.7243 11.2064 80.3058 11.3507V0.506348L74.0981 1.54028V33.8809H80.3058V16.6646C80.701 16.5444 81.1195 16.4482 81.5845 16.3521C82.0728 16.2318 82.6075 16.1837 83.1655 16.1837C84.5605 16.1837 85.4904 16.6166 86.0019 17.4822C86.5367 18.3478 86.7924 19.8145 86.7924 21.8824Z" fill="#263238"/>
<path d="M92.9981 33.9043L86.7207 33.3191V27.6526H92.9981V33.9043Z" fill="#FF7D1F"/>
<path fill-rule="evenodd" clip-rule="evenodd" d="M71.958 22.3859C69.9818 24.3336 67.3314 25.5118 64.3787 25.5118C58.3338 25.5118 53.4281 20.4383 53.4281 14.1866C53.4281 7.93484 58.3338 2.86133 64.3787 2.86133C67.3546 2.86133 70.0516 4.08763 72.0278 6.08337L68.0753 10.171C67.0989 9.23327 65.7969 8.65619 64.3322 8.65619C61.3097 8.65619 58.8685 11.1809 58.8685 14.3068C58.8685 17.4326 61.3097 19.9574 64.3322 19.9574C65.7969 19.9574 67.0989 19.3803 68.0986 18.4185L71.958 22.3859Z" fill="#FDAE40"/>
<path fill-rule="evenodd" clip-rule="evenodd" d="M71.958 30.6325C69.9818 32.5802 67.3314 33.7584 64.3787 33.7584C58.3338 33.7584 53.4281 28.6849 53.4281 22.4331C53.4281 16.1814 58.3338 11.1079 64.3787 11.1079C67.3546 11.1079 70.0516 12.3342 72.0278 14.3299L68.0986 18.4176C67.1221 17.4799 65.7969 16.9028 64.3322 16.9028C61.3097 16.9028 58.8685 19.4275 58.8685 22.5534C58.8685 25.6792 61.3097 28.204 64.3322 28.204C65.7969 28.204 67.0989 27.6269 68.0986 26.6651L71.958 30.6325Z" fill="#FF7D1F"/>
<path d="M51.2436 27.7713C50.6624 28.0118 50.0114 28.1801 49.2907 28.3244C48.5932 28.4446 47.9189 28.4927 47.2447 28.4927C45.8497 28.4927 44.9197 28.0839 44.4548 27.2904C44.013 26.4969 43.7805 25.4149 43.7805 24.0684V16.1095H51.2204V10.7714H43.7805V4.11096L37.5729 5.1449V24.1646C37.5729 25.6313 37.6891 26.9538 37.9449 28.156C38.2239 29.3583 38.6889 30.3922 39.3631 31.2579C40.0373 32.0994 40.9208 32.7487 42.0368 33.2296C43.1528 33.6864 44.5478 33.9269 46.245 33.9269C47.5702 33.9269 48.7094 33.8066 49.6162 33.5902C50.5229 33.3498 51.3599 33.0853 52.1039 32.7727L51.2436 27.7713Z" fill="#263238"/>
<path d="M25.2721 10.1713C23.9468 10.1713 22.6449 10.4358 21.3661 10.9407C20.1107 11.4457 19.0179 12.2151 18.0414 13.225C17.065 14.2349 16.2745 15.4852 15.67 17.0001C15.0887 18.4909 14.7865 20.2462 14.7865 22.2419C14.7865 23.901 15.019 25.4639 15.4607 26.8826C15.9257 28.3253 16.6465 29.5756 17.5764 30.6336C18.5529 31.6676 19.7619 32.4851 21.2034 33.0862C22.6681 33.6874 24.3886 33.9999 26.3648 33.9999C27.132 33.9999 27.9225 33.9519 28.6897 33.8797C29.457 33.7835 30.1777 33.6874 30.852 33.5431C31.5494 33.4229 32.1772 33.2786 32.7352 33.1103C33.2932 32.942 33.7349 32.7736 34.0604 32.6053L33.2234 27.3875C32.5259 27.7001 31.6192 27.9646 30.5265 28.2051C29.4337 28.3974 28.341 28.5177 27.2018 28.5177C25.4348 28.5177 24.0166 28.1329 22.9471 27.3635C21.9009 26.5941 21.2964 25.5361 21.1569 24.2136H35.2229C35.2461 23.877 35.2694 23.4922 35.3159 23.0594C35.3391 22.6026 35.3624 22.1938 35.3624 21.8091C35.3624 17.9859 34.4556 15.1005 32.6654 13.1529C30.8287 11.1571 28.3875 10.1713 25.2721 10.1713ZM21.1569 19.8133C21.2499 19.2603 21.3661 18.7313 21.5289 18.2264C21.7149 17.6733 21.9939 17.2165 22.3194 16.8077C22.6449 16.3989 23.0633 16.0864 23.5748 15.87C24.0631 15.6055 24.6676 15.4852 25.3651 15.4852C26.0858 15.4852 26.6903 15.6055 27.1553 15.87C27.6435 16.1344 28.062 16.447 28.3643 16.8558C28.6897 17.2646 28.9222 17.7214 29.0617 18.2264C29.2245 18.7313 29.3175 19.2844 29.364 19.8133H21.1569Z" fill="#263238"/>
<path d="M6.37039 7.95892C6.50988 7.45398 6.71913 6.99712 6.99813 6.63644C7.30037 6.25172 7.69561 5.98723 8.2071 5.77082C8.74184 5.53037 9.36958 5.43419 10.1136 5.43419C10.6716 5.43419 11.276 5.50632 11.9038 5.65059C12.578 5.77082 13.1825 5.96318 13.7405 6.20363L14.9495 1.08203C14.4147 0.841578 13.6708 0.625174 12.6943 0.384723C11.7178 0.120227 10.6483 0 9.48583 0C6.34714 0 3.97568 0.865622 2.37146 2.57282C0.790485 4.30407 0 6.6124 0 9.5459V25.608H6.20764V16.0862H13.8568V10.7482H6.20764V9.61803C6.20764 9.04095 6.25414 8.48792 6.37039 7.95892Z" fill="#263238"/>
<path d="M0 33.9288L6.20764 33.3277V27.5328H0V33.9288Z" fill="#FF7D1F"/>
</svg>
