<svg width="146" height="50" viewBox="0 0 146 50" fill="none" xmlns="http://www.w3.org/2000/svg">
<g clip-path="url(#clip0_115_7491)">
<path d="M56.2646 32.4135C60.3348 32.4135 63.2023 30.2247 63.2023 26.6421C63.2023 22.7307 59.9798 21.7182 56.9521 20.7669C54.0571 19.8919 53.3182 19.2669 53.3182 18.0869C53.3182 16.9932 54.2484 16.1718 55.8321 16.1718C57.7721 16.1718 58.8096 17.1844 59.4921 18.6344L62.661 16.8007C61.3773 14.1143 58.9684 12.5005 55.8271 12.5005C52.5495 12.5005 49.5445 14.5793 49.5445 18.1894C49.5445 21.8282 52.3857 23.0646 55.3084 23.9071C58.1496 24.7271 59.4334 25.2746 59.4334 26.6971C59.4334 27.7633 58.6409 28.7208 56.3734 28.7208C53.9984 28.7208 52.6582 27.5721 51.9757 25.7933L48.752 27.6808C49.7895 30.526 52.3582 32.4135 56.2646 32.4135Z" fill="black"/>
<path d="M72.0804 17.9705C70.0804 17.9705 68.6391 18.7092 67.6554 19.9706V18.3542H64.1265V37.5009H67.6504V30.417C68.6341 31.6747 70.0816 32.4172 72.0754 32.4172C75.7355 32.4172 78.7405 29.2708 78.7405 25.1958C78.7405 21.1206 75.7405 17.9705 72.0804 17.9705ZM71.4254 29.0495C69.2666 29.0495 67.6554 27.4895 67.6554 25.192C67.6554 22.8944 69.2666 21.3356 71.4254 21.3356C73.6105 21.3356 75.2218 22.8944 75.2218 25.192C75.2218 27.4895 73.6105 29.0495 71.4254 29.0495Z" fill="black"/>
<path d="M87.4584 17.9707C85.6284 17.9707 84.2084 18.6544 83.3883 19.8857V12.8855H79.8645V32.031H83.3883V24.6458C83.3883 22.2707 84.6722 21.2532 86.3884 21.2532C87.9722 21.2532 89.0922 22.2107 89.0922 24.0708V32.031H92.6261V23.6333C92.6261 20.0007 90.3534 17.9707 87.4584 17.9707Z" fill="black"/>
<path d="M97.2423 26.642H107.54C107.629 26.1637 107.675 25.6784 107.677 25.192C107.677 21.1719 104.809 17.9705 100.766 17.9705C96.4772 17.9705 93.5547 21.1169 93.5547 25.192C93.5547 29.267 96.4497 32.4134 101.039 32.4134C103.664 32.4134 105.71 31.3472 106.994 29.487L104.154 27.8458C103.553 28.6383 102.46 29.2133 101.094 29.2133C99.2361 29.2133 97.7336 28.447 97.2423 26.642ZM97.1873 23.9069C97.5973 22.1569 98.8811 21.1444 100.766 21.1444C102.241 21.1444 103.716 21.9369 104.154 23.9069H97.1873Z" fill="black"/>
<path d="M112.298 20.7068V18.3543H108.774V32.0309H112.298V25.4932C112.298 22.6181 114.62 21.8006 116.45 22.0193V18.0806C114.729 18.0806 113.004 18.8468 112.298 20.7068Z" fill="black"/>
<path d="M123.895 32.4134C127.91 32.4134 131.134 29.267 131.134 25.192C131.134 21.1169 127.91 17.9705 123.895 17.9705C119.88 17.9705 116.684 21.1169 116.684 25.192C116.684 29.267 119.879 32.4134 123.895 32.4134ZM123.895 28.967C121.819 28.967 120.208 27.4083 120.208 25.192C120.208 22.9756 121.819 21.4169 123.895 21.4169C125.998 21.4169 127.61 22.9769 127.61 25.192C127.61 27.407 126.004 28.967 123.895 28.967Z" fill="black"/>
<path d="M139.84 17.9705C138.01 17.9705 136.59 18.6542 135.769 19.8856V18.3542H132.245V32.0309H135.769V24.6456C135.769 22.2706 137.054 21.2531 138.769 21.2531C140.354 21.2531 141.474 22.2106 141.474 24.0706V32.0309H145.003V23.6331C145.003 20.0006 142.735 17.9705 139.84 17.9705Z" fill="black"/>
<path d="M31.9208 0.721269V10.3465C31.9206 10.5961 31.8561 10.8415 31.7334 11.0589C31.6108 11.2763 31.4342 11.4585 31.2208 11.5878L31.1608 11.6228L28.9108 12.9191L15.813 20.4517L14.2229 21.3655C14.196 21.3773 14.1704 21.392 14.1466 21.4092C14.0476 21.4756 13.9665 21.5655 13.9104 21.6706C13.8543 21.7758 13.8249 21.8933 13.8249 22.0125C13.8249 22.1316 13.8543 22.2491 13.9104 22.3542C13.9665 22.4594 14.0476 22.5492 14.1466 22.6156L14.2066 22.6506L16.0005 23.6906L22.1256 27.2156L22.2344 27.2794C22.3302 27.3458 22.4086 27.4344 22.4628 27.5377C22.5169 27.6411 22.5452 27.7559 22.5452 27.8725C22.5452 27.9892 22.5169 28.1041 22.4628 28.2073C22.4086 28.3108 22.3302 28.3994 22.2344 28.4658L22.1281 28.5258L10.9365 34.9734L10.874 35.0097C10.6622 35.1258 10.4244 35.1864 10.1828 35.1859C9.96645 35.1852 9.753 35.1364 9.55773 35.0434L9.49523 35.0109L9.40023 34.9547L2.91008 31.2233L0.76127 29.987C0.74127 29.977 0.721269 29.9645 0.700019 29.952C0.49248 29.8253 0.320445 29.6481 0.200006 29.437C0.0692017 29.2183 8.68656e-05 28.9681 1.28097e-06 28.7133V18.6692C-0.000326698 18.4231 0.0623323 18.1809 0.182017 17.9659C0.301702 17.7508 0.47443 17.5698 0.683769 17.4405C0.688567 17.4359 0.69405 17.432 0.700019 17.4292C0.723645 17.4142 0.748289 17.4008 0.77377 17.3892L0.78377 17.3817L2.90883 16.1592L10.0803 12.034L18.723 7.06267L30.7883 0.125004C30.8072 0.111686 30.8273 0.0999781 30.8483 0.0900033C30.9541 0.0309388 31.0733 -4.55331e-05 31.1945 1.0777e-06C31.2898 -0.00016322 31.3844 0.0184597 31.4725 0.0548063C31.5608 0.091153 31.6409 0.144512 31.7084 0.211836C31.7759 0.279159 31.8297 0.359131 31.8662 0.447183C31.903 0.535236 31.9219 0.629644 31.922 0.725019L31.9208 0.721269Z" fill="#01ABFF"/>
<path d="M42.0007 21.288V31.332C42.0004 31.5813 41.9358 31.8263 41.8132 32.0433C41.6905 32.2603 41.5139 32.442 41.3007 32.5708L41.2394 32.6058L39.0905 33.8433L36.3755 35.4059L31.9228 37.9672L23.2777 42.9386L11.2149 49.8763C11.1956 49.8891 11.1756 49.9008 11.1549 49.9113C11.0485 49.97 10.9289 50.0006 10.8074 50C10.712 50.0002 10.6175 49.9816 10.5293 49.9452C10.4411 49.9089 10.361 49.8555 10.2934 49.7881C10.2259 49.7208 10.1723 49.6409 10.1356 49.5528C10.0989 49.4647 10.08 49.3703 10.0798 49.275V39.6497C10.0796 39.4003 10.144 39.1552 10.2666 38.9381C10.3893 38.7211 10.5661 38.5394 10.7799 38.4109C10.8086 38.3922 10.8398 38.3759 10.8686 38.361L13.0937 37.0797L26.1877 29.547L27.7566 28.6445L27.8578 28.587L27.8679 28.5808C27.9638 28.5141 28.0422 28.425 28.0964 28.3214C28.1507 28.2178 28.1789 28.1027 28.1791 27.9856C28.178 27.8669 28.1483 27.75 28.0924 27.645C28.0364 27.5402 27.956 27.4503 27.8578 27.3831C27.8346 27.3678 27.8103 27.3539 27.7853 27.3419L26.0002 26.3094L19.875 22.7831L19.7575 22.7144C19.6639 22.6478 19.5875 22.5597 19.5349 22.4577C19.4822 22.3556 19.4547 22.2424 19.4547 22.1275C19.4547 22.0125 19.4822 21.8994 19.5349 21.7972C19.5875 21.6952 19.6639 21.607 19.7575 21.5405L19.8825 21.4705C19.8885 21.4664 19.8947 21.4631 19.9013 21.4605L31.0666 15.0354L31.1541 14.9854C31.3622 14.8766 31.5936 14.8198 31.8285 14.8198C32.0633 14.8198 32.2947 14.8766 32.5029 14.9854L32.5978 15.0404L39.1055 18.783L41.2544 20.0205C41.2752 20.0308 41.2952 20.0425 41.3144 20.0555C41.5221 20.1814 41.6941 20.3583 41.8144 20.5692C41.9441 20.7888 42.0119 21.0394 42.0107 21.2942L42.0007 21.288Z" fill="#0057FF"/>
</g>
<defs>
<clipPath id="clip0_115_7491">
<rect width="145.312" height="50" fill="white"/>
</clipPath>
</defs>
</svg>
